<?xml version="1.0" standalone="no"?>
<!DOCTYPE svg PUBLIC "-//W3C//DTD SVG 20010904//EN"
 "http://www.w3.org/TR/2001/REC-SVG-20010904/DTD/svg10.dtd">
<svg version="1.0" xmlns="http://www.w3.org/2000/svg"
 width="220.000000pt" height="43.000000pt" viewBox="0 0 220.000000 43.000000"
 preserveAspectRatio="xMidYMid meet">
<metadata>
Created by potrace 1.16, written by Peter Selinger 2001-2019
</metadata>
<g transform="translate(0.000000,43.000000) scale(0.100000,-0.100000)"
fill="#000000" stroke="none">
<path d="M854 336 c-17 -13 -19 -27 -19 -121 0 -114 5 -125 56 -125 43 0 49
16 49 126 0 80 -3 106 -16 118 -19 20 -44 20 -70 2z"/>
<path d="M1284 344 c-8 -3 -10 -40 -8 -117 3 -119 -4 -108 -27 41 -10 66 -13
72 -35 72 l-24 0 0 -125 c0 -94 3 -125 13 -125 9 0 12 29 10 118 -2 124 -1
121 28 -50 10 -62 13 -68 35 -68 l24 0 0 130 c0 72 -1 130 -2 129 -2 0 -8 -3
-14 -5z"/>
<path d="M1874 342 c-18 -11 -26 -51 -19 -88 5 -27 13 -37 40 -49 29 -11 35
-19 35 -43 0 -36 -21 -57 -38 -40 -7 7 -12 22 -12 35 0 14 -6 23 -15 23 -17 0
-19 -27 -5 -64 8 -21 16 -26 44 -26 41 0 56 20 56 72 0 41 -7 51 -45 69 -25
12 -30 20 -30 49 0 28 4 35 20 35 14 0 21 -8 23 -27 5 -38 32 -37 32 1 0 48
-49 78 -86 53z"/>
<path d="M196 328 c-5 -15 -26 -199 -26 -222 0 -32 29 -16 32 17 2 24 8 32 23
32 15 0 21 -8 23 -32 2 -21 9 -33 18 -33 17 0 17 0 3 114 -15 135 -16 136 -45
136 -13 0 -26 -6 -28 -12z"/>
<path d="M310 215 c0 -104 2 -125 15 -125 11 0 15 12 15 45 0 25 4 45 8 45 4
0 13 -20 20 -45 8 -30 17 -45 28 -45 11 0 14 5 10 16 -14 36 -18 92 -7 98 15
10 14 109 -1 124 -7 7 -29 12 -50 12 l-38 0 0 -125z"/>
<path d="M550 215 c0 -104 2 -125 15 -125 10 0 15 10 15 34 0 19 3 41 6 50 7
19 24 21 24 4 0 -33 22 -88 35 -88 19 0 19 0 -5 81 l-20 67 20 51 c19 48 19
51 2 51 -13 0 -24 -17 -39 -62 l-21 -63 -1 63 c-1 48 -4 62 -16 62 -13 0 -15
-21 -15 -125z"/>
<path d="M688 215 c2 -89 7 -125 15 -125 9 0 12 32 10 118 -2 124 -1 121 28
-50 10 -62 13 -68 35 -68 l24 0 0 125 c0 100 -3 125 -14 125 -11 0 -13 -22
-10 -112 4 -119 -3 -110 -26 40 -11 68 -13 72 -38 72 l-27 0 3 -125z"/>
<path d="M974 215 l9 -125 27 0 c33 0 40 24 40 141 0 46 4 79 10 79 6 0 10
-31 10 -72 0 -40 3 -90 6 -111 6 -32 10 -37 34 -37 l28 0 7 108 c4 59 9 115
12 125 4 14 0 18 -14 15 -16 -3 -19 -16 -24 -105 -6 -119 -19 -148 -20 -47 0
106 -10 148 -35 152 -29 4 -34 -14 -42 -128 -5 -81 -7 -89 -13 -55 -4 22 -8
73 -8 113 -1 62 -3 72 -18 72 -17 0 -17 -9 -9 -125z"/>
<path d="M1420 332 c0 -13 -20 -175 -25 -209 -5 -25 -2 -33 8 -33 16 0 27 21
27 52 0 32 34 18 40 -17 3 -18 12 -31 22 -33 14 -3 17 2 13 25 -6 35 -25 193
-25 210 0 8 -12 13 -30 13 -16 0 -30 -3 -30 -8z"/>
<path d="M1530 215 c0 -110 2 -125 17 -125 14 0 15 12 9 117 -8 139 6 139 22
-1 7 -54 15 -102 18 -107 3 -5 16 -9 30 -9 l24 0 0 125 c0 109 -2 125 -16 125
-15 0 -16 -12 -11 -111 7 -130 -4 -133 -22 -7 -15 110 -18 118 -47 118 l-24 0
0 -125z"/>
</g>
</svg>
